<?xml version="1.0" encoding="UTF-8" standalone="no"?>
<!DOCTYPE svg PUBLIC "-//W3C//DTD SVG 1.1//EN"
 "http://www.w3.org/Graphics/SVG/1.1/DTD/svg11.dtd">
<!-- Generated by graphviz version 14.1.5 (20260411.2331)
 -->
<!-- Title: G Pages: 1 -->
<svg width="518pt" height="697pt"
 viewBox="0.00 0.00 518.00 697.00" xmlns="http://www.w3.org/2000/svg" xmlns:xlink="http://www.w3.org/1999/xlink">
<g id="graph0" class="graph" transform="scale(1 1) rotate(0) translate(21.6 675.35)">
<title>G</title>
<polygon fill="#111111" stroke="none" points="-21.6,21.6 -21.6,-675.35 496.85,-675.35 496.85,21.6 -21.6,21.6"/>
<!-- app/api/auth/signout/route.ts -->
<g id="node1" class="node">
<title>app/api/auth/signout/route.ts</title>
<path fill="none" stroke="#cfffac" d="M198.21,-44.75C198.21,-44.75 27.79,-44.75 27.79,-44.75 23.83,-44.75 19.88,-40.79 19.88,-36.83 19.88,-36.83 19.88,-28.92 19.88,-28.92 19.88,-24.96 23.83,-21 27.79,-21 27.79,-21 198.21,-21 198.21,-21 202.17,-21 206.12,-24.96 206.12,-28.92 206.12,-28.92 206.12,-36.83 206.12,-36.83 206.12,-40.79 202.17,-44.75 198.21,-44.75"/>
<text xml:space="preserve" text-anchor="middle" x="113" y="-27.45" font-family="Arial" font-size="14.00" fill="#cfffac">app/api/auth/signout/route.ts</text>
</g>
<!-- app/api/proxy/[...path]/route.ts -->
<g id="node2" class="node">
<title>app/api/proxy/[...path]/route.ts</title>
<path fill="none" stroke="#cfffac" d="M202.33,-86.75C202.33,-86.75 23.67,-86.75 23.67,-86.75 19.71,-86.75 15.75,-82.79 15.75,-78.83 15.75,-78.83 15.75,-70.92 15.75,-70.92 15.75,-66.96 19.71,-63 23.67,-63 23.67,-63 202.33,-63 202.33,-63 206.29,-63 210.25,-66.96 210.25,-70.92 210.25,-70.92 210.25,-78.83 210.25,-78.83 210.25,-82.79 206.29,-86.75 202.33,-86.75"/>
<text xml:space="preserve" text-anchor="middle" x="113" y="-69.45" font-family="Arial" font-size="14.00" fill="#cfffac">app/api/proxy/[...path]/route.ts</text>
</g>
<!-- app/campaigns/page.tsx -->
<g id="node3" class="node">
<title>app/campaigns/page.tsx</title>
<path fill="none" stroke="#c6c5fe" d="M186.58,-191.75C186.58,-191.75 39.42,-191.75 39.42,-191.75 35.46,-191.75 31.5,-187.79 31.5,-183.83 31.5,-183.83 31.5,-175.92 31.5,-175.92 31.5,-171.96 35.46,-168 39.42,-168 39.42,-168 186.58,-168 186.58,-168 190.54,-168 194.5,-171.96 194.5,-175.92 194.5,-175.92 194.5,-183.83 194.5,-183.83 194.5,-187.79 190.54,-191.75 186.58,-191.75"/>
<text xml:space="preserve" text-anchor="middle" x="113" y="-174.45" font-family="Arial" font-size="14.00" fill="#c6c5fe">app/campaigns/page.tsx</text>
</g>
<!-- app/components/AIChat.tsx -->
<g id="node4" class="node">
<title>app/components/AIChat.tsx</title>
<path fill="none" stroke="#cfffac" d="M451.96,-233.75C451.96,-233.75 285.29,-233.75 285.29,-233.75 281.33,-233.75 277.38,-229.79 277.38,-225.83 277.38,-225.83 277.38,-217.92 277.38,-217.92 277.38,-213.96 281.33,-210 285.29,-210 285.29,-210 451.96,-210 451.96,-210 455.92,-210 459.88,-213.96 459.88,-217.92 459.88,-217.92 459.88,-225.83 459.88,-225.83 459.88,-229.79 455.92,-233.75 451.96,-233.75"/>
<text xml:space="preserve" text-anchor="middle" x="368.62" y="-216.45" font-family="Arial" font-size="14.00" fill="#cfffac">app/components/AIChat.tsx</text>
</g>
<!-- app/campaigns/page.tsx&#45;&gt;app/components/AIChat.tsx -->
<g id="edge1" class="edge">
<title>app/campaigns/page.tsx&#45;&gt;app/components/AIChat.tsx</title>
<path fill="none" stroke="#757575" d="M188.72,-192.25C218.01,-197.1 251.77,-202.69 282.02,-207.7"/>
<polygon fill="#757575" stroke="#757575" points="281.07,-211.09 291.5,-209.27 282.21,-204.18 281.07,-211.09"/>
</g>
<!-- app/components/BrandIcons.tsx -->
<g id="node5" class="node">
<title>app/components/BrandIcons.tsx</title>
<path fill="none" stroke="#cfffac" d="M465.46,-149.75C465.46,-149.75 271.79,-149.75 271.79,-149.75 267.83,-149.75 263.88,-145.79 263.88,-141.83 263.88,-141.83 263.88,-133.92 263.88,-133.92 263.88,-129.96 267.83,-126 271.79,-126 271.79,-126 465.46,-126 465.46,-126 469.42,-126 473.38,-129.96 473.38,-133.92 473.38,-133.92 473.38,-141.83 473.38,-141.83 473.38,-145.79 469.42,-149.75 465.46,-149.75"/>
<text xml:space="preserve" text-anchor="middle" x="368.62" y="-132.45" font-family="Arial" font-size="14.00" fill="#cfffac">app/components/BrandIcons.tsx</text>
</g>
<!-- app/campaigns/page.tsx&#45;&gt;app/components/BrandIcons.tsx -->
<g id="edge2" class="edge">
<title>app/campaigns/page.tsx&#45;&gt;app/components/BrandIcons.tsx</title>
<path fill="none" stroke="#757575" d="M188.72,-167.5C218.01,-162.65 251.77,-157.06 282.02,-152.05"/>
<polygon fill="#757575" stroke="#757575" points="282.21,-155.57 291.5,-150.48 281.07,-148.66 282.21,-155.57"/>
</g>
<!-- app/components/Sidebar.tsx -->
<g id="node6" class="node">
<title>app/components/Sidebar.tsx</title>
<path fill="none" stroke="#cfffac" d="M454.21,-191.75C454.21,-191.75 283.04,-191.75 283.04,-191.75 279.08,-191.75 275.12,-187.79 275.12,-183.83 275.12,-183.83 275.12,-175.92 275.12,-175.92 275.12,-171.96 279.08,-168 283.04,-168 283.04,-168 454.21,-168 454.21,-168 458.17,-168 462.12,-171.96 462.12,-175.92 462.12,-175.92 462.12,-183.83 462.12,-183.83 462.12,-187.79 458.17,-191.75 454.21,-191.75"/>
<text xml:space="preserve" text-anchor="middle" x="368.62" y="-174.45" font-family="Arial" font-size="14.00" fill="#cfffac">app/components/Sidebar.tsx</text>
</g>
<!-- app/campaigns/page.tsx&#45;&gt;app/components/Sidebar.tsx -->
<g id="edge3" class="edge">
<title>app/campaigns/page.tsx&#45;&gt;app/components/Sidebar.tsx</title>
<path fill="none" stroke="#757575" d="M194.95,-179.88C216.65,-179.88 240.42,-179.88 263.2,-179.88"/>
<polygon fill="#757575" stroke="#757575" points="263.13,-183.38 273.13,-179.88 263.13,-176.38 263.13,-183.38"/>
</g>
<!-- app/components/FilterBar.tsx -->
<g id="node7" class="node">
<title>app/components/FilterBar.tsx</title>
<path fill="none" stroke="#cfffac" d="M456.46,-107.75C456.46,-107.75 280.79,-107.75 280.79,-107.75 276.83,-107.75 272.88,-103.79 272.88,-99.83 272.88,-99.83 272.88,-91.92 272.88,-91.92 272.88,-87.96 276.83,-84 280.79,-84 280.79,-84 456.46,-84 456.46,-84 460.42,-84 464.38,-87.96 464.38,-91.92 464.38,-91.92 464.38,-99.83 464.38,-99.83 464.38,-103.79 460.42,-107.75 456.46,-107.75"/>
<text xml:space="preserve" text-anchor="middle" x="368.62" y="-90.45" font-family="Arial" font-size="14.00" fill="#cfffac">app/components/FilterBar.tsx</text>
</g>
<!-- app/components/HealthChart.tsx -->
<g id="node8" class="node">
<title>app/components/HealthChart.tsx</title>
<path fill="none" stroke="#cfffac" d="M467.33,-65.75C467.33,-65.75 269.92,-65.75 269.92,-65.75 265.96,-65.75 262,-61.79 262,-57.83 262,-57.83 262,-49.92 262,-49.92 262,-45.96 265.96,-42 269.92,-42 269.92,-42 467.33,-42 467.33,-42 471.29,-42 475.25,-45.96 475.25,-49.92 475.25,-49.92 475.25,-57.83 475.25,-57.83 475.25,-61.79 471.29,-65.75 467.33,-65.75"/>
<text xml:space="preserve" text-anchor="middle" x="368.62" y="-48.45" font-family="Arial" font-size="14.00" fill="#cfffac">app/components/HealthChart.tsx</text>
</g>
<!-- app/components/StatsCards.tsx -->
<g id="node9" class="node">
<title>app/components/StatsCards.tsx</title>
<path fill="none" stroke="#cfffac" d="M464.71,-23.75C464.71,-23.75 272.54,-23.75 272.54,-23.75 268.58,-23.75 264.62,-19.79 264.62,-15.83 264.62,-15.83 264.62,-7.92 264.62,-7.92 264.62,-3.96 268.58,0 272.54,0 272.54,0 464.71,0 464.71,0 468.67,0 472.62,-3.96 472.62,-7.92 472.62,-7.92 472.62,-15.83 472.62,-15.83 472.62,-19.79 468.67,-23.75 464.71,-23.75"/>
<text xml:space="preserve" text-anchor="middle" x="368.62" y="-6.45" font-family="Arial" font-size="14.00" fill="#cfffac">app/components/StatsCards.tsx</text>
</g>
<!-- app/globals.css -->
<g id="node10" class="node">
<title>app/globals.css</title>
<path fill="none" stroke="#cfffac" d="M415.21,-275.75C415.21,-275.75 322.04,-275.75 322.04,-275.75 318.08,-275.75 314.12,-271.79 314.12,-267.83 314.12,-267.83 314.12,-259.92 314.12,-259.92 314.12,-255.96 318.08,-252 322.04,-252 322.04,-252 415.21,-252 415.21,-252 419.17,-252 423.12,-255.96 423.12,-259.92 423.12,-259.92 423.12,-267.83 423.12,-267.83 423.12,-271.79 419.17,-275.75 415.21,-275.75"/>
<text xml:space="preserve" text-anchor="middle" x="368.62" y="-258.45" font-family="Arial" font-size="14.00" fill="#cfffac">app/globals.css</text>
</g>
<!-- app/insights/page.tsx -->
<g id="node11" class="node">
<title>app/insights/page.tsx</title>
<path fill="none" stroke="#c6c5fe" d="M176.46,-233.75C176.46,-233.75 49.54,-233.75 49.54,-233.75 45.58,-233.75 41.62,-229.79 41.62,-225.83 41.62,-225.83 41.62,-217.92 41.62,-217.92 41.62,-213.96 45.58,-210 49.54,-210 49.54,-210 176.46,-210 176.46,-210 180.42,-210 184.38,-213.96 184.38,-217.92 184.38,-217.92 184.38,-225.83 184.38,-225.83 184.38,-229.79 180.42,-233.75 176.46,-233.75"/>
<text xml:space="preserve" text-anchor="middle" x="113" y="-216.45" font-family="Arial" font-size="14.00" fill="#c6c5fe">app/insights/page.tsx</text>
</g>
<!-- app/insights/page.tsx&#45;&gt;app/components/AIChat.tsx -->
<g id="edge4" class="edge">
<title>app/insights/page.tsx&#45;&gt;app/components/AIChat.tsx</title>
<path fill="none" stroke="#757575" d="M184.65,-221.88C209.66,-221.88 238.32,-221.88 265.42,-221.88"/>
<polygon fill="#757575" stroke="#757575" points="265.41,-225.38 275.41,-221.88 265.41,-218.38 265.41,-225.38"/>
</g>
<!-- app/insights/page.tsx&#45;&gt;app/components/Sidebar.tsx -->
<g id="edge5" class="edge">
<title>app/insights/page.tsx&#45;&gt;app/components/Sidebar.tsx</title>
<path fill="none" stroke="#757575" d="M184.65,-210.18C214.81,-205.18 250.27,-199.31 281.91,-194.07"/>
<polygon fill="#757575" stroke="#757575" points="282.14,-197.58 291.43,-192.49 281,-190.67 282.14,-197.58"/>
</g>
<!-- app/layout.tsx -->
<g id="node12" class="node">
<title>app/layout.tsx</title>
<path fill="none" stroke="#c6c5fe" d="M154.71,-275.75C154.71,-275.75 71.29,-275.75 71.29,-275.75 67.33,-275.75 63.38,-271.79 63.38,-267.83 63.38,-267.83 63.38,-259.92 63.38,-259.92 63.38,-255.96 67.33,-252 71.29,-252 71.29,-252 154.71,-252 154.71,-252 158.67,-252 162.62,-255.96 162.62,-259.92 162.62,-259.92 162.62,-267.83 162.62,-267.83 162.62,-271.79 158.67,-275.75 154.71,-275.75"/>
<text xml:space="preserve" text-anchor="middle" x="113" y="-258.45" font-family="Arial" font-size="14.00" fill="#c6c5fe">app/layout.tsx</text>
</g>
<!-- app/layout.tsx&#45;&gt;app/globals.css -->
<g id="edge6" class="edge">
<title>app/layout.tsx&#45;&gt;app/globals.css</title>
<path fill="none" stroke="#757575" d="M162.9,-263.88C202.68,-263.88 259.14,-263.88 302.7,-263.88"/>
<polygon fill="#757575" stroke="#757575" points="302.54,-267.38 312.54,-263.88 302.54,-260.38 302.54,-267.38"/>
</g>
<!-- app/login/actions.ts -->
<g id="node13" class="node">
<title>app/login/actions.ts</title>
<path fill="none" stroke="#cfffac" d="M426.46,-317.75C426.46,-317.75 310.79,-317.75 310.79,-317.75 306.83,-317.75 302.88,-313.79 302.88,-309.83 302.88,-309.83 302.88,-301.92 302.88,-301.92 302.88,-297.96 306.83,-294 310.79,-294 310.79,-294 426.46,-294 426.46,-294 430.42,-294 434.38,-297.96 434.38,-301.92 434.38,-301.92 434.38,-309.83 434.38,-309.83 434.38,-313.79 430.42,-317.75 426.46,-317.75"/>
<text xml:space="preserve" text-anchor="middle" x="368.62" y="-300.45" font-family="Arial" font-size="14.00" fill="#cfffac">app/login/actions.ts</text>
</g>
<!-- app/login/page.tsx -->
<g id="node14" class="node">
<title>app/login/page.tsx</title>
<path fill="none" stroke="#c6c5fe" d="M167.83,-317.75C167.83,-317.75 58.17,-317.75 58.17,-317.75 54.21,-317.75 50.25,-313.79 50.25,-309.83 50.25,-309.83 50.25,-301.92 50.25,-301.92 50.25,-297.96 54.21,-294 58.17,-294 58.17,-294 167.83,-294 167.83,-294 171.79,-294 175.75,-297.96 175.75,-301.92 175.75,-301.92 175.75,-309.83 175.75,-309.83 175.75,-313.79 171.79,-317.75 167.83,-317.75"/>
<text xml:space="preserve" text-anchor="middle" x="113" y="-300.45" font-family="Arial" font-size="14.00" fill="#c6c5fe">app/login/page.tsx</text>
</g>
<!-- app/login/page.tsx&#45;&gt;app/login/actions.ts -->
<g id="edge7" class="edge">
<title>app/login/page.tsx&#45;&gt;app/login/actions.ts</title>
<path fill="none" stroke="#757575" d="M176.04,-305.88C210.86,-305.88 254.59,-305.88 291.47,-305.88"/>
<polygon fill="#757575" stroke="#757575" points="291.17,-309.38 301.17,-305.88 291.17,-302.38 291.17,-309.38"/>
</g>
<!-- app/page.tsx -->
<g id="node15" class="node">
<title>app/page.tsx</title>
<path fill="none" stroke="#c6c5fe" d="M151.71,-128.75C151.71,-128.75 74.29,-128.75 74.29,-128.75 70.33,-128.75 66.38,-124.79 66.38,-120.83 66.38,-120.83 66.38,-112.92 66.38,-112.92 66.38,-108.96 70.33,-105 74.29,-105 74.29,-105 151.71,-105 151.71,-105 155.67,-105 159.62,-108.96 159.62,-112.92 159.62,-112.92 159.62,-120.83 159.62,-120.83 159.62,-124.79 155.67,-128.75 151.71,-128.75"/>
<text xml:space="preserve" text-anchor="middle" x="113" y="-111.45" font-family="Arial" font-size="14.00" fill="#c6c5fe">app/page.tsx</text>
</g>
<!-- app/page.tsx&#45;&gt;app/components/AIChat.tsx -->
<g id="edge8" class="edge">
<title>app/page.tsx&#45;&gt;app/components/AIChat.tsx</title>
<path fill="none" stroke="#757575" d="M159.87,-128.34C181.2,-135.06 206.18,-145.01 226,-158.88 246.14,-172.97 240.78,-188.46 262,-200.88 264.63,-202.41 267.36,-203.84 270.16,-205.17"/>
<polygon fill="#757575" stroke="#757575" points="268.58,-208.3 279.16,-208.95 271.29,-201.85 268.58,-208.3"/>
</g>
<!-- app/page.tsx&#45;&gt;app/components/BrandIcons.tsx -->
<g id="edge9" class="edge">
<title>app/page.tsx&#45;&gt;app/components/BrandIcons.tsx</title>
<path fill="none" stroke="#757575" d="M159.93,-120.68C185.79,-122.82 219.35,-125.6 251.92,-128.29"/>
<polygon fill="#757575" stroke="#757575" points="251.62,-131.78 261.88,-129.12 252.2,-124.81 251.62,-131.78"/>
</g>
<!-- app/page.tsx&#45;&gt;app/components/Sidebar.tsx -->
<g id="edge12" class="edge">
<title>app/page.tsx&#45;&gt;app/components/Sidebar.tsx</title>
<path fill="none" stroke="#757575" d="M153.97,-129.16C183.62,-138.04 225.13,-149.99 262,-158.88 271.08,-161.06 280.64,-163.2 290.14,-165.21"/>
<polygon fill="#757575" stroke="#757575" points="289.26,-168.6 299.76,-167.21 290.68,-161.75 289.26,-168.6"/>
</g>
<!-- app/page.tsx&#45;&gt;app/components/FilterBar.tsx -->
<g id="edge10" class="edge">
<title>app/page.tsx&#45;&gt;app/components/FilterBar.tsx</title>
<path fill="none" stroke="#757575" d="M159.93,-113.07C188.2,-110.73 225.68,-107.63 261.02,-104.7"/>
<polygon fill="#757575" stroke="#757575" points="261.21,-108.2 270.89,-103.88 260.63,-101.22 261.21,-108.2"/>
</g>
<!-- app/page.tsx&#45;&gt;app/components/HealthChart.tsx -->
<g id="edge11" class="edge">
<title>app/page.tsx&#45;&gt;app/components/HealthChart.tsx</title>
<path fill="none" stroke="#757575" d="M159.92,-111.89C180.56,-108.73 204.96,-103.72 226,-95.88 243.36,-89.41 244.68,-81.44 262,-74.88 267.57,-72.76 273.4,-70.85 279.32,-69.12"/>
<polygon fill="#757575" stroke="#757575" points="279.87,-72.6 288.6,-66.6 278.03,-65.85 279.87,-72.6"/>
</g>
<!-- app/page.tsx&#45;&gt;app/components/StatsCards.tsx -->
<g id="edge13" class="edge">
<title>app/page.tsx&#45;&gt;app/components/StatsCards.tsx</title>
<path fill="none" stroke="#757575" d="M159.97,-116.95C181.7,-114.93 206.98,-109.41 226,-95.88 252.27,-77.18 235.83,-51.72 262,-32.88 263.76,-31.61 265.59,-30.41 267.46,-29.28"/>
<polygon fill="#757575" stroke="#757575" points="268.6,-32.63 275.83,-24.88 265.35,-26.43 268.6,-32.63"/>
</g>
<!-- utils/apiConfig.ts -->
<g id="node16" class="node">
<title>utils/apiConfig.ts</title>
<path fill="none" stroke="#cfffac" d="M162.58,-359.75C162.58,-359.75 63.42,-359.75 63.42,-359.75 59.46,-359.75 55.5,-355.79 55.5,-351.83 55.5,-351.83 55.5,-343.92 55.5,-343.92 55.5,-339.96 59.46,-336 63.42,-336 63.42,-336 162.58,-336 162.58,-336 166.54,-336 170.5,-339.96 170.5,-343.92 170.5,-343.92 170.5,-351.83 170.5,-351.83 170.5,-355.79 166.54,-359.75 162.58,-359.75"/>
<text xml:space="preserve" text-anchor="middle" x="113" y="-342.45" font-family="Arial" font-size="14.00" fill="#cfffac">utils/apiConfig.ts</text>
</g>
<!-- utils/loginThrottle.ts -->
<g id="node17" class="node">
<title>utils/loginThrottle.ts</title>
<path fill="none" stroke="#cfffac" d="M171.21,-401.75C171.21,-401.75 54.79,-401.75 54.79,-401.75 50.83,-401.75 46.88,-397.79 46.88,-393.83 46.88,-393.83 46.88,-385.92 46.88,-385.92 46.88,-381.96 50.83,-378 54.79,-378 54.79,-378 171.21,-378 171.21,-378 175.17,-378 179.12,-381.96 179.12,-385.92 179.12,-385.92 179.12,-393.83 179.12,-393.83 179.12,-397.79 175.17,-401.75 171.21,-401.75"/>
<text xml:space="preserve" text-anchor="middle" x="113" y="-384.45" font-family="Arial" font-size="14.00" fill="#cfffac">utils/loginThrottle.ts</text>
</g>
<!-- utils/supabase/client.ts -->
<g id="node18" class="node">
<title>utils/supabase/client.ts</title>
<path fill="none" stroke="#cfffac" d="M180.96,-443.75C180.96,-443.75 45.04,-443.75 45.04,-443.75 41.08,-443.75 37.12,-439.79 37.12,-435.83 37.12,-435.83 37.12,-427.92 37.12,-427.92 37.12,-423.96 41.08,-420 45.04,-420 45.04,-420 180.96,-420 180.96,-420 184.92,-420 188.88,-423.96 188.88,-427.92 188.88,-427.92 188.88,-435.83 188.88,-435.83 188.88,-439.79 184.92,-443.75 180.96,-443.75"/>
<text xml:space="preserve" text-anchor="middle" x="113" y="-426.45" font-family="Arial" font-size="14.00" fill="#cfffac">utils/supabase/client.ts</text>
</g>
<!-- utils/supabase/cookie&#45;floor.d.mts -->
<g id="node19" class="node">
<title>utils/supabase/cookie&#45;floor.d.mts</title>
<path fill="none" stroke="#cfffac" d="M466.96,-506.75C466.96,-506.75 270.29,-506.75 270.29,-506.75 266.33,-506.75 262.38,-502.79 262.38,-498.83 262.38,-498.83 262.38,-490.92 262.38,-490.92 262.38,-486.96 266.33,-483 270.29,-483 270.29,-483 466.96,-483 466.96,-483 470.92,-483 474.88,-486.96 474.88,-490.92 474.88,-490.92 474.88,-498.83 474.88,-498.83 474.88,-502.79 470.92,-506.75 466.96,-506.75"/>
<text xml:space="preserve" text-anchor="middle" x="368.62" y="-489.45" font-family="Arial" font-size="14.00" fill="#cfffac">utils/supabase/cookie&#45;floor.d.mts</text>
</g>
<!-- utils/supabase/cookie&#45;floor.mjs -->
<g id="node20" class="node">
<title>utils/supabase/cookie&#45;floor.mjs</title>
<path fill="none" stroke="#cfffac" d="M460.96,-569.75C460.96,-569.75 276.29,-569.75 276.29,-569.75 272.33,-569.75 268.38,-565.79 268.38,-561.83 268.38,-561.83 268.38,-553.92 268.38,-553.92 268.38,-549.96 272.33,-546 276.29,-546 276.29,-546 460.96,-546 460.96,-546 464.92,-546 468.88,-549.96 468.88,-553.92 468.88,-553.92 468.88,-561.83 468.88,-561.83 468.88,-565.79 464.92,-569.75 460.96,-569.75"/>
<text xml:space="preserve" text-anchor="middle" x="368.62" y="-552.45" font-family="Arial" font-size="14.00" fill="#cfffac">utils/supabase/cookie&#45;floor.mjs</text>
</g>
<!-- utils/supabase/cookie&#45;floor.test.mjs -->
<g id="node21" class="node">
<title>utils/supabase/cookie&#45;floor.test.mjs</title>
<path fill="none" stroke="#c6c5fe" d="M218.08,-569.75C218.08,-569.75 7.92,-569.75 7.92,-569.75 3.96,-569.75 0,-565.79 0,-561.83 0,-561.83 0,-553.92 0,-553.92 0,-549.96 3.96,-546 7.92,-546 7.92,-546 218.08,-546 218.08,-546 222.04,-546 226,-549.96 226,-553.92 226,-553.92 226,-561.83 226,-561.83 226,-565.79 222.04,-569.75 218.08,-569.75"/>
<text xml:space="preserve" text-anchor="middle" x="113" y="-552.45" font-family="Arial" font-size="14.00" fill="#c6c5fe">utils/supabase/cookie&#45;floor.test.mjs</text>
</g>
<!-- utils/supabase/cookie&#45;floor.test.mjs&#45;&gt;utils/supabase/cookie&#45;floor.mjs -->
<g id="edge14" class="edge">
<title>utils/supabase/cookie&#45;floor.test.mjs&#45;&gt;utils/supabase/cookie&#45;floor.mjs</title>
<path fill="none" stroke="#757575" d="M226.35,-557.88C236.46,-557.88 246.69,-557.88 256.79,-557.88"/>
<polygon fill="#757575" stroke="#757575" points="256.6,-561.38 266.6,-557.88 256.6,-554.38 256.6,-561.38"/>
</g>
<!-- utils/supabase/middleware.ts -->
<g id="node22" class="node">
<title>utils/supabase/middleware.ts</title>
<path fill="none" stroke="#c6c5fe" d="M200.08,-527.75C200.08,-527.75 25.92,-527.75 25.92,-527.75 21.96,-527.75 18,-523.79 18,-519.83 18,-519.83 18,-511.92 18,-511.92 18,-507.96 21.96,-504 25.92,-504 25.92,-504 200.08,-504 200.08,-504 204.04,-504 208,-507.96 208,-511.92 208,-511.92 208,-519.83 208,-519.83 208,-523.79 204.04,-527.75 200.08,-527.75"/>
<text xml:space="preserve" text-anchor="middle" x="113" y="-510.45" font-family="Arial" font-size="14.00" fill="#c6c5fe">utils/supabase/middleware.ts</text>
</g>
<!-- utils/supabase/middleware.ts&#45;&gt;utils/supabase/cookie&#45;floor.d.mts -->
<g id="edge15" class="edge">
<title>utils/supabase/middleware.ts&#45;&gt;utils/supabase/cookie&#45;floor.d.mts</title>
<path fill="none" stroke="#757575" d="M208.44,-508.06C222.22,-506.91 236.55,-505.73 250.71,-504.56"/>
<polygon fill="#757575" stroke="#757575" points="250.83,-508.06 260.51,-503.74 250.25,-501.08 250.83,-508.06"/>
</g>
<!-- utils/supabase/server.ts -->
<g id="node23" class="node">
<title>utils/supabase/server.ts</title>
<path fill="none" stroke="#c6c5fe" d="M183.58,-485.75C183.58,-485.75 42.42,-485.75 42.42,-485.75 38.46,-485.75 34.5,-481.79 34.5,-477.83 34.5,-477.83 34.5,-469.92 34.5,-469.92 34.5,-465.96 38.46,-462 42.42,-462 42.42,-462 183.58,-462 183.58,-462 187.54,-462 191.5,-465.96 191.5,-469.92 191.5,-469.92 191.5,-477.83 191.5,-477.83 191.5,-481.79 187.54,-485.75 183.58,-485.75"/>
<text xml:space="preserve" text-anchor="middle" x="113" y="-468.45" font-family="Arial" font-size="14.00" fill="#c6c5fe">utils/supabase/server.ts</text>
</g>
<!-- utils/supabase/server.ts&#45;&gt;utils/supabase/cookie&#45;floor.d.mts -->
<g id="edge16" class="edge">
<title>utils/supabase/server.ts&#45;&gt;utils/supabase/cookie&#45;floor.d.mts</title>
<path fill="none" stroke="#757575" d="M191.82,-480.32C210.41,-481.86 230.66,-483.53 250.58,-485.18"/>
<polygon fill="#757575" stroke="#757575" points="250.17,-488.66 260.42,-486 250.74,-481.69 250.17,-488.66"/>
</g>
<!-- utils/useEscape.ts -->
<g id="node24" class="node">
<title>utils/useEscape.ts</title>
<path fill="none" stroke="#cfffac" d="M167.46,-611.75C167.46,-611.75 58.54,-611.75 58.54,-611.75 54.58,-611.75 50.63,-607.79 50.63,-603.83 50.63,-603.83 50.63,-595.92 50.63,-595.92 50.63,-591.96 54.58,-588 58.54,-588 58.54,-588 167.46,-588 167.46,-588 171.42,-588 175.38,-591.96 175.38,-595.92 175.38,-595.92 175.38,-603.83 175.38,-603.83 175.38,-607.79 171.42,-611.75 167.46,-611.75"/>
<text xml:space="preserve" text-anchor="middle" x="113" y="-594.45" font-family="Arial" font-size="14.00" fill="#cfffac">utils/useEscape.ts</text>
</g>
<!-- utils/useFocusTrap.ts -->
<g id="node25" class="node">
<title>utils/useFocusTrap.ts</title>
<path fill="none" stroke="#cfffac" d="M177.21,-653.75C177.21,-653.75 48.79,-653.75 48.79,-653.75 44.83,-653.75 40.88,-649.79 40.88,-645.83 40.88,-645.83 40.88,-637.92 40.88,-637.92 40.88,-633.96 44.83,-630 48.79,-630 48.79,-630 177.21,-630 177.21,-630 181.17,-630 185.12,-633.96 185.12,-637.92 185.12,-637.92 185.12,-645.83 185.12,-645.83 185.12,-649.79 181.17,-653.75 177.21,-653.75"/>
<text xml:space="preserve" text-anchor="middle" x="113" y="-636.45" font-family="Arial" font-size="14.00" fill="#cfffac">utils/useFocusTrap.ts</text>
</g>
</g>
</svg>
